<svg id="Capa_1" enable-background="new 0 0 512 512" fill="#fff" height="512" viewBox="0 0 512 512" width="512" xmlns="http://www.w3.org/2000/svg">
<g>
<path d="m417.791 284.497c-19.096-20.939-43.102-36.251-69.585-44.726-.015-.005-.03-.01-.045-.015-9.465-3.026-19.244-5.183-29.231-6.405-.717-1.52-1.695-2.894-2.884-4.064v-39.121c8.764-9.257 14.774-20.921 17.147-33.572 13.112-.906 23.502-11.862 23.502-25.199v-14.649c0-11.132-9.057-20.189-20.189-20.189-.729 0-1.453.032-2.171.097v-23.2c-.001-40.503-32.952-73.454-73.455-73.454h-9.761c-40.502 0-73.454 32.951-73.454 73.453v23.2c-.718-.065-1.443-.097-2.171-.097-11.132 0-20.189 9.057-20.189 20.189v14.649c0 13.337 10.39 24.294 23.502 25.199 2.372 12.651 8.383 24.314 17.147 33.572v39.145c-1.2 1.18-2.163 2.547-2.871 4.038-9.995 1.223-19.783 3.382-29.255 6.411-.008.003-.017.005-.025.008-26.479 8.473-50.483 23.78-69.579 44.714-26.995 29.593-41.862 67.969-41.862 108.055v22.384c0 4.149 3.363 7.512 7.512 7.512s7.512-3.363 7.512-7.512v-22.384c0-34.84 12.107-66.886 32.53-91.977l20.708 39.474c12.511 23.848 19.124 50.687 19.124 77.618v79.324h-69.858c-1.381 0-2.504-1.123-2.504-2.504v-42.528c0-4.149-3.363-7.512-7.512-7.512s-7.512 3.363-7.512 7.512v42.528c0 9.665 7.863 17.529 17.529 17.529h372.219c9.665 0 17.529-7.863 17.529-17.529v-101.935c-.001-40.078-14.862-78.446-41.848-108.039zm-116.77-56.108c-.666.917-1.139 1.994-1.335 3.189-.635 3.885 1.834 7.561 5.586 8.498v33.412l-16.387-7.721c-.115-1.037-.324-2.074-.656-3.096l-6.445-19.836c-2.076-6.388-7.985-10.682-14.703-10.682h-20.856c-2.131 0-4.178.434-6.049 1.228l-29.197-7.376v-23.96l27.263 16.515c5.477 3.319 11.617 4.978 17.759 4.978 6.14 0 12.282-1.659 17.758-4.977l27.263-16.516v26.344zm-94.293 12.038 23.637 5.971-5.288 16.272c-.263.809-.455 1.626-.581 2.446l-17.768 8.372zm32.797 27.373c-.153-.112-.217-.307-.158-.487l6.446-19.835c.058-.18.224-.3.414-.3h20.856c.189 0 .356.121.414.3l6.444 19.835c.059.18-.005.376-.158.487l-16.873 12.259c-.153.112-.359.112-.512 0zm-47.822 8.271-14.214-24.619c4.647-1.144 9.388-2.071 14.214-2.765zm12.453 13.928c1.806 0 3.62-.396 5.319-1.196l20.307-9.568c.294.249.596.49.911.719l6.156 4.472-8.12 55.773-29.603-51.273c1.6.712 3.311 1.073 5.03 1.073zm46.489 3.951c1.921.814 3.964 1.226 6.008 1.226 2.045 0 4.087-.412 6.008-1.226l9.528 65.445-16.189 28.041-15.146-26.234zm33.67 44.443-7.857-53.966 6.155-4.472c.146-.106.281-.223.423-.334l19.489 9.182c1.7.801 3.513 1.197 5.319 1.197 1.718 0 3.43-.361 5.03-1.072zm35.982-89.706c4.826.694 9.567 1.621 14.214 2.765l-14.214 24.62zm-69.177-233.662h9.761c28.033 0 51.519 19.843 57.147 46.222-2.425-.826-5.021-1.273-7.722-1.273h-108.611c-2.7 0-5.297.447-7.722 1.273 5.628-26.379 29.114-46.222 57.147-46.222zm-65.741 126.605h-4.813c-5.644 0-10.235-4.591-10.235-10.235v-14.649c0-2.847 2.317-5.165 5.165-5.165 1.911 0 3.752.592 5.323 1.712 2.292 1.632 5.302 1.848 7.801.56 2.5-1.288 4.071-3.866 4.071-6.678v-23.172c0-4.965 4.039-9.004 9.004-9.004h108.611c4.965 0 9.004 4.039 9.004 9.004v23.173c-.191 5.92 7.163 9.706 11.872 6.117 1.571-1.12 3.412-1.712 5.323-1.712 2.848 0 5.165 2.317 5.165 5.165v14.649c0 5.644-4.591 10.235-10.236 10.235h-4.813c-3.914 0-7.172 3.005-7.488 6.906-1.331 16.441-10.547 31.358-24.652 39.903l-28.509 17.271c-6.152 3.727-13.795 3.728-19.946-.001l-28.509-17.27c-14.105-8.545-23.321-23.462-24.652-39.903-.314-3.901-3.572-6.906-7.486-6.906zm259.235 352.841c0 1.381-1.123 2.504-2.504 2.504h-69.857v-79.324c0-16.037 2.304-31.966 6.848-47.345 1.175-3.979-1.097-8.157-5.076-9.333-3.975-1.177-8.157 1.096-9.333 5.076-4.953 16.762-7.464 34.123-7.464 51.602v79.324h-202.456v-79.324c0-29.353-7.208-58.606-20.843-84.598l-23.249-44.318c14.589-14.347 32.254-25.633 52.046-32.803l82.431 142.774c2.263 3.919 6.316 6.259 10.843 6.259 4.526 0 8.579-2.34 10.843-6.26l82.429-142.772c19.791 7.171 37.457 18.457 52.046 32.805l-23.247 44.316c-1.927 3.674-.512 8.216 3.163 10.143 1.114.584 2.307.862 3.483.862 2.704 0 5.316-1.464 6.659-4.024l20.706-39.472c20.423 25.092 32.531 57.138 32.531 91.975v101.933z"/>
<circle cx="289.69" cy="120.277" r="9.146"/><circle cx="222.311" cy="120.277" r="9.146"/>
</g>
</svg>